<?xml version="1.0" encoding="utf-8"?>
<!-- Generator: Adobe Illustrator 22.1.0, SVG Export Plug-In . SVG Version: 6.00 Build 0)  -->
<svg version="1.1" id="圖層_1" xmlns="http://www.w3.org/2000/svg" xmlns:xlink="http://www.w3.org/1999/xlink" x="0px" y="0px"
	 viewBox="0 0 48 16" style="enable-background:new 0 0 48 16;" xml:space="preserve">
<style type="text/css">
	.st0{fill:#A5CF4C;}
</style>
<g>
	<path class="st0" d="M44,13.5c-2.5,0-4.9,0-5.6,0c-1.4-0.1-2.3-1-2.4-2.3C36,10.4,36,9.7,36,8.9c0.1-1.3,1.2-2.5,2.4-2.5
		c0.4,0,1.6,0,3.6,0l6,0V3.9c0,0-4.8,0-6.2,0c-1.9,0-2.9,0-3.5,0c-1.3,0.1-2.5,0.5-3.4,1.4c-0.8,0.8-1.3,2.2-1.4,3.5
		c0,0.7-0.1,1.7,0,2.3c0.1,1.5,0.6,2.6,1.4,3.4c0.8,0.9,2.1,1.4,3.4,1.4c1,0,9.7,0,9.7,0v-2.5C48,13.5,45.4,13.5,44,13.5 M17,4v2.5
		h5.9v9.4h2.5V6.5h5.9V4H17z M14.4,8.7c0-1.3-0.5-2.5-1.4-3.4c-1-1-2.4-1.4-3.4-1.4c-0.8,0-4.1,0-4.9,0c-1.1,0-1.9,0.4-2.3,0.7
		c0,0,0,0,0,0V0H0V16h2.5c0,0,0-6.5,0-7.2c0.1-1.3,1.1-2.3,2.3-2.4c1-0.1,3.9-0.1,4.8,0c1.3,0.1,2.2,1.1,2.3,2.4c0,0.5,0,7.2,0,7.2
		h2.5C14.4,16,14.4,9.3,14.4,8.7"/>
</g>
</svg>
